<svg width="201" height="201" viewBox="0 0 201 201" fill="none" xmlns="http://www.w3.org/2000/svg" style="">
<path d="M100.5 0.5C45.3 0.5 0.5 45.3 0.5 100.5C0.5 155.7 45.3 200.5 100.5 200.5C103.2 200.5 105.8 200.4 108.5 200.2V189.5V182.1V72.5H153.5V54.5H45.5V72.5H90.5V181.9C49.9 177 18.5 142.4 18.5 100.5C18.5 55.2 55.2 18.5 100.5 18.5C145.8 18.5 182.5 55.2 182.5 100.5C182.5 135.8 159.9 167.1 126.5 178.3V197.1C170.2 185.3 200.5 145.7 200.5 100.5C200.5 45.3 155.7 0.5 100.5 0.5Z" stroke="#FFAD00" stroke-miterlimit="10" class="JMcoQhTS_0 GpjeZwDz_0"></path>
<style data-made-with="vivus-instant">.GpjeZwDz_0{stroke-dasharray:1579 1581;stroke-dashoffset:1580;animation:GpjeZwDz_draw 2000ms ease-in-out 0ms forwards;}@keyframes GpjeZwDz_draw{100%{stroke-dashoffset:0;}}@keyframes GpjeZwDz_fade{0%{stroke-opacity:1;}94.44444444444444%{stroke-opacity:1;}100%{stroke-opacity:0;}}</style></svg>